<?xml version="1.0" standalone="no"?>
<!DOCTYPE svg PUBLIC "-//W3C//DTD SVG 20010904//EN"
 "http://www.w3.org/TR/2001/REC-SVG-20010904/DTD/svg10.dtd">
<svg version="1.0" xmlns="http://www.w3.org/2000/svg"
 width="345.000000pt" height="345.000000pt" viewBox="0 0 345.000000 345.000000"
 preserveAspectRatio="xMidYMid meet">
<metadata>
Created by potrace 1.11, written by Peter Selinger 2001-2013
</metadata>
<g transform="translate(0.000000,345.000000) scale(0.100000,-0.100000)"
fill="#000000" stroke="none">
<path d="M0 1725 l0 -1725 636 0 c594 0 638 1 651 18 14 16 14 16 9 -1 -3 -9
-2 -17 2 -17 15 1 94 186 96 223 1 55 -30 80 -88 69 -74 -13 -124 -8 -140 13
-13 18 -11 23 32 62 26 24 51 43 57 43 6 0 29 9 52 20 70 34 143 26 143 -16 0
-10 -13 -14 -44 -14 -56 0 -67 -15 -24 -33 43 -18 54 -33 62 -82 8 -45 -1 -87
-37 -189 -14 -38 -23 -74 -21 -80 8 -22 55 -16 124 14 89 39 128 39 165 0 26
-28 34 -30 97 -30 l68 0 0 38 c0 20 -12 87 -26 147 -14 61 -28 128 -31 150 -3
22 -16 63 -28 90 -29 63 -42 107 -50 170 -4 27 -15 60 -26 73 -15 20 -19 41
-19 103 0 46 4 79 10 79 6 0 9 3 9 8 -3 18 2 32 11 32 6 0 10 -9 10 -21 0 -37
32 -79 69 -89 65 -18 94 24 71 105 -7 24 -10 58 -8 75 6 38 -9 39 -23 3 -9
-22 -7 -38 5 -72 l17 -45 -25 23 c-18 17 -33 22 -51 19 -20 -4 -25 -2 -21 9
13 33 46 173 46 193 0 19 -4 22 -30 18 -44 -7 -36 10 16 33 37 17 53 19 90 11
35 -8 44 -7 44 4 0 8 -7 14 -15 14 -8 0 -24 5 -34 12 -15 9 -31 7 -82 -10 -35
-12 -64 -20 -66 -18 -2 2 1 15 6 30 12 29 3 33 -30 16 -25 -14 -24 -2 2 21
l22 19 -28 22 c-25 20 -26 22 -10 34 16 12 16 13 -3 25 -19 12 -18 14 24 41
50 31 61 33 85 15 17 -13 65 -11 220 9 37 4 63 2 79 -6 21 -11 22 -17 17 -74
-7 -76 -34 -149 -87 -239 -46 -80 -52 -100 -28 -105 11 -2 41 18 76 52 33 31
66 56 74 56 8 0 27 10 42 21 15 12 30 19 33 16 3 -3 7 -34 9 -69 2 -41 9 -67
19 -74 26 -19 17 -40 -41 -101 -48 -51 -56 -56 -65 -40 -14 24 -28 21 -39 -8
-15 -41 -38 -31 -42 18 l-4 42 -17 -39 c-10 -21 -16 -41 -13 -44 3 -3 6 -1 6
4 1 5 7 -6 15 -25 12 -28 18 -31 30 -21 8 6 19 9 25 5 5 -3 10 1 10 10 0 12 6
15 21 10 17 -6 34 7 91 67 80 83 97 102 158 176 24 28 45 50 47 48 6 -6 -32
-74 -77 -136 -45 -63 -48 -70 -20 -63 18 5 210 203 210 217 0 4 9 16 20 28 11
12 20 27 20 32 0 6 -25 -15 -55 -46 -59 -62 -78 -75 -47 -30 11 15 39 66 61
115 23 48 46 87 51 87 5 0 7 -8 3 -18 -5 -14 -3 -14 14 3 31 31 62 126 56 171
-9 74 -43 154 -99 234 -57 83 -55 104 6 47 37 -34 80 -57 107 -57 9 0 28 10
41 23 l25 22 -14 -22 c-8 -13 -17 -23 -21 -23 -19 0 -5 -38 17 -48 14 -7 30
-24 36 -39 18 -47 -9 -173 -57 -274 -28 -57 -119 -197 -156 -241 -46 -53 -58
-68 -84 -108 -15 -22 -31 -37 -38 -33 -6 3 -8 3 -4 -2 7 -7 -5 -36 -23 -59 -5
-6 -19 -23 -30 -39 -11 -15 -25 -24 -30 -21 -6 3 -10 0 -8 -7 3 -27 -1 -40
-11 -34 -6 3 -11 1 -11 -4 -6 -45 -20 -62 -48 -56 -23 5 -28 1 -44 -35 -9 -22
-17 -49 -17 -59 0 -11 -4 -23 -10 -26 -8 -5 -8 -22 -1 -79 2 -14 51 38 51 54
0 12 2 12 9 2 6 -11 28 5 86 61 42 40 90 81 105 90 27 16 28 16 25 0 -1 -11
-9 -17 -20 -15 -9 2 -14 -1 -11 -6 3 -6 -5 -17 -19 -26 -58 -38 -158 -155
-192 -224 -29 -60 -36 -127 -14 -127 11 0 15 -16 15 -70 1 -39 5 -75 9 -82 4
-6 3 -14 -3 -18 -5 -3 -10 -16 -10 -28 0 -16 3 -18 12 -9 7 7 12 60 14 143 3
127 4 134 36 196 30 58 100 136 188 208 14 11 34 32 46 47 11 14 38 35 59 46
22 11 50 34 63 51 29 39 43 40 36 1 -6 -26 -4 -30 15 -30 12 0 19 4 16 10 -4
6 6 10 24 10 23 0 29 4 25 15 -4 8 1 17 10 21 9 3 14 10 11 14 -3 5 -1 11 5
15 5 3 10 14 10 24 0 9 11 27 24 38 13 12 27 35 31 53 9 40 25 46 76 26 23 -9
44 -14 47 -11 3 3 1 5 -5 5 -6 0 -14 15 -17 34 -4 23 -18 43 -42 61 -39 30
-38 46 2 25 47 -26 88 -142 80 -230 -12 -133 -30 -195 -107 -357 -64 -135 -53
-155 72 -128 41 8 76 15 78 15 2 0 0 -7 -3 -16 -3 -8 -2 -12 4 -9 6 3 11 -4
11 -17 1 -13 6 4 11 36 8 48 7 62 -6 74 -13 13 -20 11 -62 -17 -26 -17 -56
-31 -66 -31 -17 0 -18 5 -13 38 3 20 19 71 35 113 16 42 36 120 46 175 9 54
23 110 32 124 27 43 19 160 -18 260 -17 47 -46 128 -63 180 -28 83 -32 91 -35
61 -3 -33 30 -143 51 -169 18 -23 -1 -25 -31 -3 -17 12 -46 21 -65 21 -36 0
-54 -15 -72 -58 -9 -20 -19 -26 -53 -29 -42 -4 -52 3 -32 23 6 6 13 21 15 34
2 13 9 26 13 29 5 3 12 16 16 29 4 12 12 22 17 22 5 0 9 7 9 16 0 9 5 12 12 8
8 -5 9 -2 5 9 -3 9 -2 19 3 22 5 3 19 26 32 51 12 25 24 41 26 35 2 -7 12 -6
28 1 22 11 25 16 19 47 -3 20 -14 42 -23 49 -20 15 -23 38 -20 162 2 52 3 199
3 325 0 207 -2 239 -23 325 -13 52 -35 118 -49 145 -14 28 -29 58 -34 67 -15
30 -10 95 12 158 18 51 19 66 9 93 -7 18 -22 74 -35 124 -27 107 -30 113 -53
113 -40 0 -77 -104 -97 -275 -32 -273 -143 -551 -198 -496 -6 6 3 25 26 53 74
92 116 209 137 388 12 98 12 216 1 245 -8 21 -21 -80 -21 -169 0 -61 -27 -165
-48 -190 -15 -16 -27 -18 -109 -13 -58 4 -93 3 -93 -3 0 -6 4 -10 8 -10 12 0
32 -46 32 -73 0 -12 -12 -42 -26 -67 -28 -49 -45 -140 -25 -140 6 0 11 -6 11
-14 0 -8 6 -17 13 -20 9 -5 9 -7 0 -12 -10 -4 -10 -11 -2 -26 9 -17 13 -18 20
-7 6 10 9 10 9 2 0 -7 15 -17 33 -23 l32 -10 -38 5 -39 4 17 -25 c15 -23 15
-24 -2 -13 -10 6 -31 32 -47 58 -38 60 -46 147 -21 227 21 67 14 116 -20 138
-35 23 -31 36 13 37 l37 2 -40 6 c-22 4 -46 3 -52 -2 -7 -5 -13 -6 -13 -2 0 4
-7 2 -15 -5 -9 -7 -27 -10 -44 -7 -34 7 -57 -13 -47 -40 5 -12 9 -14 18 -5 7
7 26 12 42 12 23 0 27 -3 17 -9 -13 -8 -12 -15 5 -47 10 -20 27 -41 37 -48 21
-13 23 -36 2 -36 -11 0 -13 -8 -8 -32 14 -77 51 -188 65 -198 4 -3 9 -17 12
-32 2 -14 12 -38 21 -52 9 -14 13 -31 9 -37 -4 -7 -3 -9 3 -6 6 4 13 -2 16
-12 3 -13 17 -22 41 -26 20 -4 33 -11 30 -16 -3 -5 5 -9 18 -10 l23 0 -24 -10
c-19 -7 -33 -3 -72 21 -27 16 -53 30 -57 30 -8 0 -46 59 -47 72 0 3 -3 9 -6
13 -4 3 -10 -15 -13 -42 -6 -39 -2 -57 18 -99 13 -28 36 -65 51 -82 14 -17 24
-36 20 -42 -4 -6 -3 -9 2 -8 20 6 143 -92 143 -114 0 -4 -10 -8 -22 -8 -20 0
-60 24 -161 93 -45 30 -63 -8 -23 -48 14 -14 22 -25 18 -25 -4 0 8 -9 26 -20
34 -21 45 -38 12 -20 -10 6 -23 9 -27 8 -16 -3 -69 15 -108 37 -44 24 -131 40
-140 25 -5 -9 28 -26 125 -64 25 -10 59 -24 75 -31 17 -7 46 -18 65 -25 50
-17 101 -42 129 -62 30 -23 14 -24 -18 -2 -13 9 -52 27 -88 39 -35 13 -67 25
-70 29 -4 3 -16 6 -28 6 -22 0 -121 31 -160 50 -19 9 -127 50 -132 50 -8 0 -1
-38 8 -47 7 -7 3 -10 -16 -8 -30 4 -57 23 -49 36 3 5 -2 6 -10 3 -8 -3 -24 0
-36 6 -34 18 -35 4 -1 -29 19 -18 53 -36 84 -45 160 -43 194 -51 212 -48 14 1
16 0 7 -7 -17 -10 6 -21 46 -21 15 0 35 -7 45 -15 11 -7 25 -11 33 -8 8 3 17
-2 20 -11 3 -9 11 -16 18 -15 43 7 107 -82 114 -158 2 -30 0 -53 -5 -53 -5 0
-18 -9 -30 -19 -24 -23 -76 -50 -115 -62 -31 -8 -30 -7 4 43 14 20 16 32 8 52
-5 14 -7 26 -4 26 2 0 -3 15 -12 33 -26 50 -26 77 -1 78 12 1 26 1 31 0 5 -1
6 5 2 14 -3 9 -6 18 -6 21 0 7 -56 32 -119 53 -68 22 -174 26 -351 13 l-85 -7
28 -19 c30 -21 36 -46 10 -46 -10 0 -31 9 -48 20 -42 28 -85 25 -165 -10 -82
-36 -95 -37 -115 -6 -14 22 -14 28 7 82 32 83 32 252 0 338 -27 74 -63 121
-111 145 -21 11 -71 48 -112 83 -41 35 -91 76 -109 91 l-35 28 35 -19 c130
-73 137 -74 176 -32 22 22 34 28 53 23 19 -5 22 -3 15 8 -4 8 7 2 25 -13 41
-35 58 -36 36 -2 -16 25 -16 26 4 19 27 -8 50 29 26 43 -9 5 -22 38 -30 77
-12 58 -22 76 -55 110 -33 34 -47 60 -69 133 -16 50 -36 98 -45 107 -11 12
-16 34 -16 76 0 32 -7 103 -15 157 -13 89 -25 130 -99 327 -15 39 -33 89 -42
113 -17 46 -40 55 -47 20 l-4 -23 -2 23 -1 22 -490 0 -490 0 0 -1725z m614
911 c17 -18 39 -48 49 -67 18 -33 18 -33 0 -11 -63 82 -82 98 -119 100 -53 4
-56 12 -4 12 36 0 48 -6 74 -34z m-124 20 c0 -2 -7 -7 -16 -10 -8 -3 -12 -2
-9 4 6 10 25 14 25 6z m-65 -41 c-15 -15 -32 -24 -39 -22 -6 2 5 14 24 25 46
28 49 28 15 -3z m2045 -410 c-7 -8 -10 -21 -7 -28 2 -7 -1 -26 -8 -42 -12 -26
-13 -27 -14 -8 -1 14 -8 23 -21 25 -20 3 -20 4 2 29 19 22 38 34 57 38 2 1 -2
-6 -9 -14z m295 -147 c4 -18 9 -42 11 -53 3 -11 -4 -4 -15 15 -22 37 -27 70
-12 70 5 0 12 -15 16 -32z m-115 -25 c0 -23 -4 -33 -9 -27 -9 8 -4 64 5 64 2
0 4 -17 4 -37z m116 -349 c-3 -8 -10 -14 -16 -14 -10 0 -4 43 9 65 8 13 14
-32 7 -51z m-286 -39 c7 -9 11 -17 8 -20 -2 -2 -12 4 -21 15 -9 11 -13 20 -8
20 5 0 14 -7 21 -15z m0 -135 c0 -5 -2 -10 -4 -10 -3 0 -8 5 -11 10 -3 6 -1
10 4 10 6 0 11 -4 11 -10z m-49 -407 c-12 -20 -14 -14 -5 12 4 9 9 14 11 11 3
-2 0 -13 -6 -23z m309 -2 c0 -15 -73 -69 -103 -76 -24 -6 -26 -5 -20 11 8 24
23 34 49 34 12 0 32 9 45 20 28 23 29 23 29 11z m-145 -201 c-3 -5 -13 -10
-21 -10 -8 0 -12 5 -9 10 3 6 13 10 21 10 8 0 12 -4 9 -10z m-129 -58 c-17
-16 -18 -16 -5 5 7 12 15 20 18 17 3 -2 -3 -12 -13 -22z m-46 -57 c-14 -17
-70 -49 -70 -41 0 3 4 16 9 30 7 18 15 23 29 19 11 -2 23 0 27 7 4 6 9 9 12 6
3 -3 0 -13 -7 -21z m-161 -195 c1 -13 0 -13 -9 0 -5 8 -9 26 -9 40 l1 25 8
-25 c4 -14 8 -32 9 -40z m-794 -100 c3 -5 -8 -9 -27 -8 -18 0 -44 -2 -58 -5
-20 -6 -20 -4 5 8 35 17 71 19 80 5z m292 -192 c21 -31 25 -51 27 -110 1 -68
-1 -73 -21 -76 -23 -3 -73 52 -73 81 0 20 16 23 24 5 4 -7 4 30 1 82 -3 72 -2
90 6 75 6 -11 23 -37 36 -57z"/>
<path d="M1080 3398 c10 -29 24 -66 31 -83 7 -16 13 -32 14 -35 0 -3 9 -20 19
-39 14 -26 20 -31 27 -20 5 8 9 24 9 35 0 12 7 27 15 34 9 7 15 8 15 2 0 -16
70 -115 99 -139 22 -19 37 -22 101 -21 l75 1 -60 7 c-74 9 -110 25 -131 59
l-17 26 24 -22 c49 -45 115 -61 189 -47 l32 7 -61 29 c-68 33 -95 67 -112 147
-19 89 0 95 25 8 13 -43 34 -89 46 -102 30 -32 38 -24 12 12 -25 35 -42 96
-42 151 l0 42 -164 0 -164 0 18 -52z"/>
<path d="M1945 3240 c-10 -11 -13 -20 -8 -20 13 0 38 29 31 35 -3 3 -13 -4
-23 -15z"/>
<path d="M1910 3198 c-36 -10 -83 -23 -105 -27 l-40 -9 45 0 c25 -1 68 4 95 9
28 6 60 10 73 11 15 0 22 5 20 16 -4 22 -15 22 -88 0z"/>
<path d="M1890 3116 c0 -8 5 -18 10 -21 6 -3 10 3 10 14 0 12 -4 21 -10 21 -5
0 -10 -6 -10 -14z"/>
<path d="M2185 3094 c-19 -19 -15 -38 8 -42 13 -3 17 4 17 27 0 36 -3 37 -25
15z"/>
<path d="M2031 3031 c-11 -15 -25 -39 -31 -52 -14 -34 -48 -89 -64 -105 -7 -7
-24 -10 -37 -8 -19 5 -21 4 -9 -5 24 -17 45 -13 71 17 30 34 89 137 89 156 0
8 6 17 13 19 8 4 9 6 0 6 -6 1 -21 -12 -32 -28z"/>
<path d="M1244 3000 c4 -30 9 -80 12 -110 5 -53 5 -54 -12 -35 -16 19 -16 19
-10 -15 4 -19 20 -64 37 -99 27 -56 29 -67 18 -88 -9 -17 -10 -26 -2 -34 17
-17 33 -1 33 33 0 35 10 32 15 -4 14 -102 19 -125 26 -138 6 -10 9 -2 9 25 0
29 3 36 10 25 7 -11 9 -1 8 33 -1 26 -5 47 -8 47 -3 0 -12 21 -19 48 -7 26
-21 65 -31 88 -10 23 -31 90 -45 150 -30 123 -52 162 -41 74z"/>
<path d="M2370 2990 c0 -5 10 -10 23 -10 35 0 65 -27 77 -68 13 -48 13 -196
-1 -245 -11 -40 -41 -77 -61 -77 -7 1 -4 6 8 13 12 7 19 17 17 24 -2 6 1 14 6
18 18 10 12 32 -9 38 -13 3 -20 0 -20 -10 0 -8 -4 -12 -9 -9 -5 3 -12 -5 -15
-18 -4 -16 -16 -26 -38 -31 -28 -7 -30 -9 -10 -12 12 -3 22 -9 22 -14 0 -5
-10 -9 -22 -10 -13 -1 -4 -5 20 -10 86 -17 114 17 133 161 8 59 8 98 -1 149
-15 87 -38 121 -86 121 -19 0 -34 -4 -34 -10z m20 -400 c0 -5 -4 -10 -10 -10
-5 0 -10 5 -10 10 0 6 5 10 10 10 6 0 10 -4 10 -10z"/>
<path d="M2093 2965 c-3 -9 -3 -18 -1 -21 3 -3 8 4 11 16 6 23 -1 27 -10 5z"/>
<path d="M2382 2950 c15 -4 39 -21 53 -37 19 -21 24 -23 19 -8 -10 29 -45 55
-74 54 l-25 -1 27 -8z"/>
<path d="M2320 2910 c0 -5 18 -10 40 -10 22 0 40 -4 40 -10 0 -5 -13 -10 -30
-10 -38 0 -39 -17 -2 -26 41 -11 73 -64 38 -64 -21 0 -27 -15 -17 -42 6 -12
10 -18 11 -13 1 6 5 -1 9 -15 9 -33 39 -39 45 -8 9 44 14 133 7 114 -7 -19 -8
-19 -13 2 -4 12 -6 23 -5 25 1 1 -8 17 -21 35 -20 27 -30 32 -63 32 -21 0 -39
-4 -39 -10z"/>
<path d="M2003 2895 c-8 -9 -11 -32 -8 -64 3 -31 1 -51 -5 -51 -5 0 -10 -7
-10 -15 0 -8 8 -15 18 -15 14 0 17 10 19 58 1 31 5 67 8 80 6 25 -4 28 -22 7z"/>
<path d="M2122 2758 c3 -7 29 -27 59 -45 90 -54 86 -50 69 -62 -8 -6 -37 -11
-63 -11 -27 0 -46 -4 -43 -8 6 -10 143 -8 174 2 29 10 26 37 -6 51 -12 5 -22
13 -22 17 0 4 -7 5 -15 2 -19 -8 -76 12 -120 42 -20 14 -35 19 -33 12z"/>
<path d="M1415 2580 c3 -5 14 -10 23 -10 15 0 15 2 2 10 -20 13 -33 13 -25 0z"/>
<path d="M1420 2414 c0 -11 7 -29 15 -40 13 -17 14 -16 5 15 -11 41 -20 51
-20 25z"/>
<path d="M2030 2415 c-7 -8 -25 -15 -41 -15 -35 0 -38 -18 -8 -51 14 -17 22
-20 26 -11 2 7 14 17 25 23 15 8 19 8 13 -1 -4 -6 2 -22 14 -34 22 -24 58 -84
87 -148 9 -21 21 -38 26 -38 8 0 3 49 -9 95 l-6 20 -7 -20 c-5 -14 -9 -2 -14
40 -8 72 -23 106 -56 122 -14 7 -19 13 -12 13 7 0 10 5 7 10 -9 15 -31 12 -45
-5z"/>
<path d="M1820 2372 c0 -10 33 -42 43 -42 9 0 -5 34 -17 42 -15 10 -26 10 -26
0z"/>
<path d="M2020 2188 c1 -29 20 -55 45 -60 16 -2 19 2 17 22 -7 50 -62 83 -62
38z"/>
<path d="M1486 2173 c-6 -14 -5 -15 5 -6 7 7 10 15 7 18 -3 3 -9 -2 -12 -12z"/>
<path d="M2000 2071 c0 -5 7 -12 16 -15 14 -5 15 -4 4 9 -14 17 -20 19 -20 6z"/>
<path d="M1768 1823 c7 -3 16 -2 19 1 4 3 -2 6 -13 5 -11 0 -14 -3 -6 -6z"/>
<path d="M1830 1820 c8 -5 24 -10 34 -10 26 0 18 6 -19 14 -22 5 -26 4 -15 -4z"/>
<path d="M2275 1800 c-3 -6 1 -7 9 -4 18 7 21 14 7 14 -6 0 -13 -4 -16 -10z"/>
<path d="M2306 1792 c-3 -6 1 -13 10 -16 23 -9 28 -2 10 13 -8 7 -17 8 -20 3z"/>
<path d="M2683 1413 c-7 -2 -13 -13 -13 -24 0 -28 -50 -149 -78 -187 -13 -18
-22 -36 -19 -39 7 -7 61 76 91 142 19 42 41 117 33 114 -1 0 -8 -3 -14 -6z"/>
<path d="M2812 1364 c4 -3 0 -17 -8 -32 -7 -14 -12 -27 -11 -28 1 -1 17 1 35
3 36 6 41 22 14 46 -17 15 -44 25 -30 11z"/>
<path d="M2870 1273 c0 -13 5 -23 10 -23 13 0 13 11 0 30 -8 12 -10 11 -10 -7z"/>
<path d="M1961 1240 c-1 -8 -4 -26 -7 -40 -5 -22 -4 -23 6 -7 6 10 9 28 7 40
-2 12 -5 15 -6 7z"/>
<path d="M1895 1220 c3 -5 13 -10 21 -10 8 0 12 5 9 10 -3 6 -13 10 -21 10 -8
0 -12 -4 -9 -10z"/>
<path d="M2045 990 c-16 -18 -17 -20 -2 -14 13 5 17 0 18 -17 1 -22 1 -22 11
4 14 38 -2 54 -27 27z"/>
<path d="M1857 953 c-10 -10 -8 -43 5 -80 11 -29 13 -31 27 -17 9 8 38 30 65
47 27 18 51 39 54 47 2 10 1 11 -5 4 -11 -15 -69 -44 -88 -44 -8 0 -20 11 -25
25 -9 25 -21 31 -33 18z"/>
<path d="M2046 915 c-9 -26 -7 -32 5 -12 6 10 9 21 6 23 -2 3 -7 -2 -11 -11z"/>
<path d="M1930 820 c-8 -5 -11 -12 -7 -16 4 -4 15 0 24 9 18 18 8 23 -17 7z"/>
<path d="M1821 689 c-14 -40 -14 -39 4 -39 18 0 31 48 18 61 -7 7 -14 0 -22
-22z"/>
<path d="M2247 713 c-4 -3 -7 -11 -7 -17 0 -6 5 -5 12 2 6 6 9 14 7 17 -3 3
-9 2 -12 -2z"/>
<path d="M2825 678 c-22 -23 -49 -53 -59 -66 l-19 -25 24 13 c13 7 36 22 52
32 25 18 32 17 28 -4 -2 -12 6 -9 23 8 19 19 22 84 4 84 -7 0 -31 -19 -53 -42z"/>
<path d="M2136 314 c-4 -20 -5 -38 -3 -40 3 -3 8 11 11 32 4 20 5 38 3 40 -3
3 -8 -11 -11 -32z"/>
<path d="M2924 263 c6 -58 4 -53 15 -53 15 0 23 37 16 70 -4 17 -13 30 -21 30
-12 0 -14 -10 -10 -47z"/>
<path d="M2281 238 c-4 -13 -12 -49 -15 -81 -4 -32 -14 -74 -22 -92 -17 -42
-11 -60 21 -61 28 -2 30 6 40 152 4 61 3 94 -4 99 -6 3 -15 -4 -20 -17z"/>
<path d="M3069 170 c-21 -12 -62 -80 -48 -80 5 0 20 7 33 15 17 12 30 13 49 6
41 -16 51 10 17 47 -23 25 -28 26 -51 12z"/>
<path d="M2910 124 c0 -8 5 -12 10 -9 6 4 8 11 5 16 -9 14 -15 11 -15 -7z"/>
<path d="M2176 75 c-9 -23 -8 -25 9 -25 17 0 19 9 6 28 -7 11 -10 10 -15 -3z"/>
<path d="M2337 33 c-12 -12 -7 -33 8 -33 17 0 19 9 7 28 -5 7 -11 9 -15 5z"/>
<path d="M2120 16 c0 -9 5 -16 10 -16 6 0 10 4 10 9 0 6 -4 13 -10 16 -5 3
-10 -1 -10 -9z"/>
</g>
</svg>
